<mxfile host="app.diagrams.net" modified="2021-12-08T04:50:23.280Z" agent="5.0 (X11; Linux x86_64) AppleWebKit/537.36 (KHTML, like Gecko) Chrome/83.0.4103.106 Safari/537.36" etag="4sxQR8vZ7zU-1zkKUdln" version="15.5.9" type="github">
  <diagram id="zt0hBE6iw92smOiEfyin" name="Page-1">
    <mxGraphModel dx="1350" dy="725" grid="1" gridSize="10" guides="1" tooltips="1" connect="1" arrows="1" fold="1" page="1" pageScale="1" pageWidth="850" pageHeight="1100" math="0" shadow="0">
      <root>
        <mxCell id="0" />
        <mxCell id="1" parent="0" />
        <mxCell id="EyPQu3zqiQZPBgV6PmX--52" value="" style="rounded=0;whiteSpace=wrap;html=1;strokeWidth=1;fillColor=none;align=right;verticalAlign=middle;dashed=1;" vertex="1" parent="1">
          <mxGeometry x="130" y="330" width="520.25" height="250" as="geometry" />
        </mxCell>
        <mxCell id="EyPQu3zqiQZPBgV6PmX--25" value="Node 1" style="rounded=0;whiteSpace=wrap;html=1;align=left;verticalAlign=top;" vertex="1" parent="1">
          <mxGeometry x="160.25" y="337" width="210" height="170" as="geometry" />
        </mxCell>
        <mxCell id="EyPQu3zqiQZPBgV6PmX--26" value="Node 2" style="rounded=0;whiteSpace=wrap;html=1;align=right;verticalAlign=top;" vertex="1" parent="1">
          <mxGeometry x="400.25" y="337" width="220" height="170" as="geometry" />
        </mxCell>
        <mxCell id="EyPQu3zqiQZPBgV6PmX--27" value="" style="rounded=1;whiteSpace=wrap;html=1;strokeColor=default;align=center;dashed=1;dashPattern=1 2;" vertex="1" parent="1">
          <mxGeometry x="214.75" y="357" width="139" height="80" as="geometry" />
        </mxCell>
        <mxCell id="EyPQu3zqiQZPBgV6PmX--28" value="ens0" style="rounded=0;whiteSpace=wrap;html=1;strokeColor=#d79b00;align=center;rotation=0;fillColor=#ffe6cc;" vertex="1" parent="1">
          <mxGeometry x="257.5" y="482" width="60" height="25" as="geometry" />
        </mxCell>
        <mxCell id="EyPQu3zqiQZPBgV6PmX--30" style="edgeStyle=orthogonalEdgeStyle;rounded=0;orthogonalLoop=1;jettySize=auto;html=1;exitX=0.5;exitY=1;exitDx=0;exitDy=0;entryX=0.5;entryY=0;entryDx=0;entryDy=0;startArrow=none;startFill=0;endArrow=none;endFill=0;" edge="1" parent="1" source="EyPQu3zqiQZPBgV6PmX--31" target="EyPQu3zqiQZPBgV6PmX--32">
          <mxGeometry relative="1" as="geometry" />
        </mxCell>
        <mxCell id="EyPQu3zqiQZPBgV6PmX--31" value="eth0" style="rounded=0;whiteSpace=wrap;html=1;fillColor=#ffe6cc;strokeColor=#d79b00;shadow=0;" vertex="1" parent="1">
          <mxGeometry x="250" y="417" width="75" height="20" as="geometry" />
        </mxCell>
        <mxCell id="EyPQu3zqiQZPBgV6PmX--32" value="veth0" style="rounded=0;whiteSpace=wrap;html=1;shadow=0;strokeColor=#d79b00;align=center;fillColor=#ffe6cc;" vertex="1" parent="1">
          <mxGeometry x="250" y="437" width="74.75" height="20" as="geometry" />
        </mxCell>
        <mxCell id="EyPQu3zqiQZPBgV6PmX--33" value="Pod 1" style="text;html=1;strokeColor=none;fillColor=none;align=center;verticalAlign=middle;whiteSpace=wrap;rounded=0;shadow=0;" vertex="1" parent="1">
          <mxGeometry x="207.75" y="352" width="60" height="30" as="geometry" />
        </mxCell>
        <mxCell id="EyPQu3zqiQZPBgV6PmX--35" value="" style="rounded=1;whiteSpace=wrap;html=1;strokeColor=default;align=center;dashed=1;dashPattern=1 2;" vertex="1" parent="1">
          <mxGeometry x="428" y="357" width="139" height="80" as="geometry" />
        </mxCell>
        <mxCell id="EyPQu3zqiQZPBgV6PmX--36" value="ens0" style="rounded=0;whiteSpace=wrap;html=1;strokeColor=#d79b00;align=center;rotation=0;fillColor=#ffe6cc;" vertex="1" parent="1">
          <mxGeometry x="470.5" y="482" width="60" height="25" as="geometry" />
        </mxCell>
        <mxCell id="EyPQu3zqiQZPBgV6PmX--38" style="edgeStyle=orthogonalEdgeStyle;rounded=0;orthogonalLoop=1;jettySize=auto;html=1;exitX=0.5;exitY=1;exitDx=0;exitDy=0;entryX=0.5;entryY=0;entryDx=0;entryDy=0;startArrow=none;startFill=0;endArrow=none;endFill=0;" edge="1" parent="1" source="EyPQu3zqiQZPBgV6PmX--39" target="EyPQu3zqiQZPBgV6PmX--40">
          <mxGeometry relative="1" as="geometry" />
        </mxCell>
        <mxCell id="EyPQu3zqiQZPBgV6PmX--39" value="eth0" style="rounded=0;whiteSpace=wrap;html=1;fillColor=#ffe6cc;strokeColor=#d79b00;shadow=0;" vertex="1" parent="1">
          <mxGeometry x="455.5" y="417" width="75" height="20" as="geometry" />
        </mxCell>
        <mxCell id="EyPQu3zqiQZPBgV6PmX--40" value="veth0" style="rounded=0;whiteSpace=wrap;html=1;shadow=0;strokeColor=#d79b00;align=center;fillColor=#ffe6cc;" vertex="1" parent="1">
          <mxGeometry x="455.5" y="437" width="74.75" height="20" as="geometry" />
        </mxCell>
        <mxCell id="EyPQu3zqiQZPBgV6PmX--41" value="Pod 2" style="text;html=1;strokeColor=none;fillColor=none;align=center;verticalAlign=middle;whiteSpace=wrap;rounded=0;shadow=0;" vertex="1" parent="1">
          <mxGeometry x="421" y="352" width="60" height="30" as="geometry" />
        </mxCell>
        <mxCell id="EyPQu3zqiQZPBgV6PmX--43" value="network" style="ellipse;shape=cloud;whiteSpace=wrap;html=1;align=center;verticalAlign=middle;" vertex="1" parent="1">
          <mxGeometry x="324.5" y="513" width="120" height="50" as="geometry" />
        </mxCell>
        <mxCell id="EyPQu3zqiQZPBgV6PmX--44" value="" style="shape=image;verticalLabelPosition=bottom;labelBackgroundColor=#ffffff;verticalAlign=top;aspect=fixed;imageAspect=0;image=https://ebpf.io/static/logo-big-9cf8920e80cdc57e6ea60825ebe287ca.png;imageBackground=default;" vertex="1" parent="1">
          <mxGeometry x="230.25" y="417.0000000000001" width="35" height="12.19" as="geometry" />
        </mxCell>
        <mxCell id="EyPQu3zqiQZPBgV6PmX--45" value="" style="shape=image;verticalLabelPosition=bottom;labelBackgroundColor=#ffffff;verticalAlign=top;aspect=fixed;imageAspect=0;image=https://ebpf.io/static/logo-big-9cf8920e80cdc57e6ea60825ebe287ca.png;imageBackground=default;" vertex="1" parent="1">
          <mxGeometry x="232.75" y="444.81000000000006" width="35" height="12.19" as="geometry" />
        </mxCell>
        <mxCell id="EyPQu3zqiQZPBgV6PmX--46" value="" style="shape=image;verticalLabelPosition=bottom;labelBackgroundColor=#ffffff;verticalAlign=top;aspect=fixed;imageAspect=0;image=https://ebpf.io/static/logo-big-9cf8920e80cdc57e6ea60825ebe287ca.png;imageBackground=default;" vertex="1" parent="1">
          <mxGeometry x="232.75" y="480.0000000000001" width="35" height="12.19" as="geometry" />
        </mxCell>
        <mxCell id="EyPQu3zqiQZPBgV6PmX--47" value="" style="shape=image;verticalLabelPosition=bottom;labelBackgroundColor=#ffffff;verticalAlign=top;aspect=fixed;imageAspect=0;image=https://ebpf.io/static/logo-big-9cf8920e80cdc57e6ea60825ebe287ca.png;imageBackground=default;" vertex="1" parent="1">
          <mxGeometry x="511.25" y="420.9100000000001" width="35" height="12.19" as="geometry" />
        </mxCell>
        <mxCell id="EyPQu3zqiQZPBgV6PmX--48" value="" style="shape=image;verticalLabelPosition=bottom;labelBackgroundColor=#ffffff;verticalAlign=top;aspect=fixed;imageAspect=0;image=https://ebpf.io/static/logo-big-9cf8920e80cdc57e6ea60825ebe287ca.png;imageBackground=default;" vertex="1" parent="1">
          <mxGeometry x="511.25" y="444.81000000000006" width="35" height="12.19" as="geometry" />
        </mxCell>
        <mxCell id="EyPQu3zqiQZPBgV6PmX--49" value="" style="shape=image;verticalLabelPosition=bottom;labelBackgroundColor=#ffffff;verticalAlign=top;aspect=fixed;imageAspect=0;image=https://ebpf.io/static/logo-big-9cf8920e80cdc57e6ea60825ebe287ca.png;imageBackground=default;" vertex="1" parent="1">
          <mxGeometry x="517.5" y="480.0000000000001" width="35" height="12.19" as="geometry" />
        </mxCell>
        <mxCell id="EyPQu3zqiQZPBgV6PmX--50" value="" style="endArrow=none;html=1;rounded=0;edgeStyle=orthogonalEdgeStyle;curved=1;entryX=0.5;entryY=1;entryDx=0;entryDy=0;exitX=0.5;exitY=1;exitDx=0;exitDy=0;fillColor=#e51400;strokeColor=#FF0000;strokeWidth=3;" edge="1" parent="1">
          <mxGeometry width="50" height="50" relative="1" as="geometry">
            <mxPoint x="287.2550000000001" y="407" as="sourcePoint" />
            <mxPoint x="492.875" y="407" as="targetPoint" />
            <Array as="points">
              <mxPoint x="280.25" y="407" />
              <mxPoint x="280.25" y="550" />
              <mxPoint x="500.25" y="550" />
              <mxPoint x="500.25" y="407" />
            </Array>
          </mxGeometry>
        </mxCell>
        <mxCell id="EyPQu3zqiQZPBgV6PmX--56" value="sidecar/app" style="rounded=0;whiteSpace=wrap;html=1;strokeColor=#82b366;align=center;fillColor=#d5e8d4;" vertex="1" parent="1">
          <mxGeometry x="250" y="387" width="70" height="20" as="geometry" />
        </mxCell>
        <mxCell id="EyPQu3zqiQZPBgV6PmX--57" value="sidecar/app" style="rounded=0;whiteSpace=wrap;html=1;strokeColor=#82b366;align=center;fillColor=#d5e8d4;" vertex="1" parent="1">
          <mxGeometry x="458" y="387" width="70" height="20" as="geometry" />
        </mxCell>
      </root>
    </mxGraphModel>
  </diagram>
</mxfile>
